<svg width="24" height="24" viewBox="0 0 24 24" fill="none" xmlns="http://www.w3.org/2000/svg">
<path d="M12 16C11.4696 16 10.9609 15.7893 10.5858 15.4142C10.2107 15.0391 10 14.5304 10 14C10 13.4696 10.2107 12.9609 10.5858 12.5858C10.9609 12.2107 11.4696 12 12 12M12 16C12.5305 16 13.0392 15.7893 13.4142 15.4142C13.7893 15.0391 14 14.5304 14 14C14 13.4696 13.7893 12.9609 13.4142 12.5858C13.0392 12.2107 12.5305 12 12 12M12 16V17.5M12 12V10.5M15.031 12.25L13.732 13M10.268 15L8.96802 15.75M15 15.803L13.715 15.03M10.285 12.97L9.00002 12.197M14 3V7C14 7.26522 14.1054 7.51957 14.2929 7.70711C14.4804 7.89464 14.7348 8 15 8H19" stroke="#004AAD" stroke-width="2" stroke-linecap="round" stroke-linejoin="round"/>
<path d="M17 21H7C6.46957 21 5.96086 20.7893 5.58579 20.4142C5.21071 20.0391 5 19.5304 5 19V5C5 4.46957 5.21071 3.96086 5.58579 3.58579C5.96086 3.21071 6.46957 3 7 3H14L19 8V19C19 19.5304 18.7893 20.0391 18.4142 20.4142C18.0391 20.7893 17.5304 21 17 21Z" stroke="#004AAD" stroke-width="2" stroke-linecap="round" stroke-linejoin="round"/>
</svg>
